<svg width="354" height="195" viewBox="0 0 354 195" fill="none" xmlns="http://www.w3.org/2000/svg">
<path fill-rule="evenodd" clip-rule="evenodd" d="M131.787 78.7519C119.121 60.2112 89.7828 36.2057 65.7728 78.4712C41.1082 121.889 101.189 178.353 112.401 121.023L112.36 120.876L112.251 121.1C98.9168 133.929 88.2834 127.008 93.5157 124.982C99.1724 122.792 104.937 116.148 106.85 112.828C99.592 113.503 95.8787 112.828 93.1782 109.283C93.5157 108.608 93.9464 107.595 93.1782 105.569C91.7854 101.897 92.2922 99.0794 92.6324 97.1882C92.7458 96.5583 92.8406 96.0312 92.8406 95.6094C92.8406 94.2589 90.2526 89.8699 88.9585 87.8441C91.4903 87.0001 95.3724 88.0692 97.0602 89.1946C97.0602 89.1946 96.4622 87.529 95.8787 86.4937C95.1906 85.2727 93.6845 83.6239 93.6845 83.6239C101.887 81.7714 115.163 86.3041 124.085 95.0626L124.121 95.0332C124.121 95.0332 132.978 103.169 135.842 110.576C136.734 112.883 137.474 115.42 138.085 118.097C143.965 143.856 119.903 164.594 93.4823 164.594H45.3866C-7.30297 164.594 -8.86463 97.5158 14.1011 62.8796C35.6404 30.3947 86.1104 27.5981 112.401 45.602C122.772 52.7036 132.698 67.7129 137.377 75.4377C138.681 77.5913 137.113 80.2548 134.595 80.2548C133.467 80.2548 132.423 79.6836 131.787 78.7519Z" fill="white"/>
<path d="M108.521 97.0507C108.521 97.0507 109.7 101.824 106.028 104.715C101.748 108.085 97.6025 105.648 97.6025 105.648C97.6025 105.648 96.0816 101.638 100.531 98.1346C104.297 95.169 108.521 97.0507 108.521 97.0507Z" fill="#222C3C"/>
<ellipse cx="103.185" cy="101.587" rx="1.62188" ry="2.74963" transform="rotate(-38.2161 103.185 101.587)" fill="white"/>
<path d="M150.421 70.93C150.421 67.2033 151.548 64.2133 153.801 61.96C156.141 59.62 159.348 58.45 163.421 58.45C167.754 58.45 170.961 59.5767 173.041 61.83C175.208 64.0833 176.291 67.0733 176.291 70.8C176.291 74.44 175.208 77.3867 173.041 79.64C170.961 81.8067 167.754 82.89 163.421 82.89C159.174 82.89 155.924 81.8067 153.671 79.64C151.504 77.3867 150.421 74.4833 150.421 70.93ZM163.421 154C159.348 154 156.314 152.873 154.321 150.62C152.328 148.367 151.331 145.55 151.331 142.17V97.71C151.331 93.9833 152.328 91.0367 154.321 88.87C156.314 86.7033 159.348 85.62 163.421 85.62C167.494 85.62 170.528 86.7033 172.521 88.87C174.601 91.0367 175.641 93.8967 175.641 97.45V142.17C175.641 145.55 174.558 148.367 172.391 150.62C170.311 152.873 167.321 154 163.421 154ZM193.596 154C189.696 154 186.576 152.873 184.236 150.62C181.983 148.28 180.856 145.42 180.856 142.04V99.01C180.856 95.37 181.94 92.2933 184.106 89.78C186.36 87.2667 189.523 86.01 193.596 86.01C197.583 86.01 200.573 87.2667 202.566 89.78C204.56 92.2933 205.556 95.4567 205.556 99.27V105.77H207.896C207.896 98.4033 209.456 93.29 212.576 90.43C215.696 87.4833 219.553 86.01 224.146 86.01C230.04 86.01 234.373 87.83 237.146 91.47C239.92 95.11 241.306 99.8767 241.306 105.77H243.646C243.646 100.83 244.47 96.93 246.116 94.07C247.763 91.21 249.843 89.1733 252.356 87.96C254.956 86.66 257.643 86.01 260.416 86.01C266.05 86.01 270.166 87.3533 272.766 90.04C275.453 92.7267 277.186 96.3233 277.966 100.83C278.746 105.337 279.136 110.407 279.136 116.04V142.04C279.136 145.42 277.966 148.28 275.626 150.62C273.373 152.873 270.34 154 266.526 154C262.713 154 259.636 152.873 257.296 150.62C254.956 148.28 253.786 145.42 253.786 142.04V119.03C253.786 115.91 253.396 113.483 252.616 111.75C251.836 110.017 250.276 109.15 247.936 109.15C245.423 109.15 243.776 110.103 242.996 112.01C242.303 113.917 241.956 116.343 241.956 119.29V142.04C241.956 145.42 240.873 148.28 238.706 150.62C236.54 152.873 233.55 154 229.736 154C225.836 154 222.716 152.873 220.376 150.62C218.123 148.28 216.996 145.42 216.996 142.04V119.03C216.996 115.91 216.606 113.483 215.826 111.75C215.046 110.017 213.53 109.15 211.276 109.15C208.763 109.15 207.16 110.103 206.466 112.01C205.86 113.917 205.556 116.343 205.556 119.29V142.04C205.556 145.42 204.516 148.28 202.436 150.62C200.356 152.873 197.41 154 193.596 154ZM317.189 154.26C307.049 154.26 298.945 151.27 292.879 145.29C286.899 139.223 283.909 130.687 283.909 119.68C283.909 112.92 285.295 106.983 288.069 101.87C290.842 96.7567 294.699 92.77 299.639 89.91C304.665 86.9633 310.515 85.49 317.189 85.49C324.642 85.49 330.839 86.9633 335.779 89.91C340.719 92.77 344.402 96.7567 346.829 101.87C349.342 106.983 350.599 112.92 350.599 119.68C350.599 130.687 347.825 139.223 342.279 145.29C336.819 151.27 328.455 154.26 317.189 154.26ZM299.379 117.47C299.379 120.157 300.722 122.063 303.409 123.19C306.095 124.23 310.689 124.75 317.189 124.75C323.689 124.75 328.282 124.23 330.969 123.19C333.655 122.063 334.999 120.157 334.999 117.47C334.999 114.87 333.655 113.05 330.969 112.01C328.282 110.97 323.689 110.45 317.189 110.45C310.689 110.45 306.095 110.97 303.409 112.01C300.722 113.05 299.379 114.87 299.379 117.47Z" fill="white"/>
</svg>
