<svg width="352" height="195" viewBox="0 0 352 195" fill="none" xmlns="http://www.w3.org/2000/svg">
<path fill-rule="evenodd" clip-rule="evenodd" d="M131.787 78.7519C119.121 60.2112 89.7828 36.2057 65.7728 78.4712C41.1082 121.889 101.189 178.353 112.401 121.023L112.36 120.876L112.251 121.1C98.9169 133.929 88.2834 127.008 93.5158 124.982C99.1725 122.792 104.937 116.148 106.85 112.828C99.592 113.503 95.8788 112.828 93.1782 109.283C93.5158 108.608 93.9465 107.595 93.1782 105.569C91.7855 101.897 92.2923 99.0794 92.6325 97.1882C92.7458 96.5583 92.8406 96.0312 92.8406 95.6094C92.8406 94.2589 90.2526 89.8699 88.9586 87.8441C91.4904 87.0001 95.3724 88.0692 97.0603 89.1946C97.0603 89.1946 96.4622 87.529 95.8788 86.4937C95.1907 85.2727 93.6846 83.6239 93.6846 83.6239C101.887 81.7714 115.163 86.3041 124.085 95.0626L124.121 95.0332C124.121 95.0332 132.978 103.169 135.842 110.576C136.734 112.883 137.474 115.42 138.085 118.097C143.965 143.856 119.903 164.594 93.4823 164.594H45.3866C-7.30297 164.594 -8.86463 97.5158 14.1011 62.8796C35.6404 30.3947 86.1104 27.5981 112.401 45.602C122.772 52.7036 132.698 67.7129 137.377 75.4377C138.681 77.5913 137.113 80.2548 134.595 80.2548C133.467 80.2548 132.423 79.6836 131.787 78.7519Z" fill="#222C3C"/>
<path d="M108.522 97.0507C108.522 97.0507 109.7 101.824 106.028 104.715C101.749 108.085 97.6027 105.648 97.6027 105.648C97.6027 105.648 96.0818 101.638 100.531 98.1346C104.298 95.169 108.522 97.0507 108.522 97.0507Z" fill="white"/>
<ellipse cx="102.921" cy="101.376" rx="2.16346" ry="3.27283" transform="rotate(-38.2161 102.921 101.376)" fill="#222C3C"/>
<path d="M148.423 70.93C148.423 67.2033 149.55 64.2133 151.803 61.96C154.143 59.62 157.35 58.45 161.423 58.45C165.756 58.45 168.963 59.5767 171.043 61.83C173.21 64.0833 174.293 67.0733 174.293 70.8C174.293 74.44 173.21 77.3867 171.043 79.64C168.963 81.8067 165.756 82.89 161.423 82.89C157.176 82.89 153.926 81.8067 151.673 79.64C149.506 77.3867 148.423 74.4833 148.423 70.93ZM161.423 154C157.35 154 154.316 152.873 152.323 150.62C150.33 148.367 149.333 145.55 149.333 142.17V97.71C149.333 93.9833 150.33 91.0367 152.323 88.87C154.316 86.7033 157.35 85.62 161.423 85.62C165.496 85.62 168.53 86.7033 170.523 88.87C172.603 91.0367 173.643 93.8967 173.643 97.45V142.17C173.643 145.55 172.56 148.367 170.393 150.62C168.313 152.873 165.323 154 161.423 154ZM191.598 154C187.698 154 184.578 152.873 182.238 150.62C179.985 148.28 178.858 145.42 178.858 142.04V99.01C178.858 95.37 179.941 92.2933 182.108 89.78C184.361 87.2667 187.525 86.01 191.598 86.01C195.585 86.01 198.575 87.2667 200.568 89.78C202.561 92.2933 203.558 95.4567 203.558 99.27V105.77H205.898C205.898 98.4033 207.458 93.29 210.578 90.43C213.698 87.4833 217.555 86.01 222.148 86.01C228.041 86.01 232.375 87.83 235.148 91.47C237.922 95.11 239.308 99.8767 239.308 105.77H241.648C241.648 100.83 242.472 96.93 244.118 94.07C245.765 91.21 247.845 89.1733 250.358 87.96C252.958 86.66 255.645 86.01 258.418 86.01C264.052 86.01 268.168 87.3533 270.768 90.04C273.455 92.7267 275.188 96.3233 275.968 100.83C276.748 105.337 277.138 110.407 277.138 116.04V142.04C277.138 145.42 275.968 148.28 273.628 150.62C271.375 152.873 268.342 154 264.528 154C260.715 154 257.638 152.873 255.298 150.62C252.958 148.28 251.788 145.42 251.788 142.04V119.03C251.788 115.91 251.398 113.483 250.618 111.75C249.838 110.017 248.278 109.15 245.938 109.15C243.425 109.15 241.778 110.103 240.998 112.01C240.305 113.917 239.958 116.343 239.958 119.29V142.04C239.958 145.42 238.875 148.28 236.708 150.62C234.542 152.873 231.551 154 227.738 154C223.838 154 220.718 152.873 218.378 150.62C216.125 148.28 214.998 145.42 214.998 142.04V119.03C214.998 115.91 214.608 113.483 213.828 111.75C213.048 110.017 211.531 109.15 209.278 109.15C206.765 109.15 205.161 110.103 204.468 112.01C203.861 113.917 203.558 116.343 203.558 119.29V142.04C203.558 145.42 202.518 148.28 200.438 150.62C198.358 152.873 195.411 154 191.598 154ZM315.191 154.26C305.051 154.26 296.947 151.27 290.881 145.29C284.901 139.223 281.911 130.687 281.911 119.68C281.911 112.92 283.297 106.983 286.071 101.87C288.844 96.7567 292.701 92.77 297.641 89.91C302.667 86.9633 308.517 85.49 315.191 85.49C322.644 85.49 328.841 86.9633 333.781 89.91C338.721 92.77 342.404 96.7567 344.831 101.87C347.344 106.983 348.601 112.92 348.601 119.68C348.601 130.687 345.827 139.223 340.281 145.29C334.821 151.27 326.457 154.26 315.191 154.26ZM297.381 117.47C297.381 120.157 298.724 122.063 301.411 123.19C304.097 124.23 308.691 124.75 315.191 124.75C321.691 124.75 326.284 124.23 328.971 123.19C331.657 122.063 333.001 120.157 333.001 117.47C333.001 114.87 331.657 113.05 328.971 112.01C326.284 110.97 321.691 110.45 315.191 110.45C308.691 110.45 304.097 110.97 301.411 112.01C298.724 113.05 297.381 114.87 297.381 117.47Z" fill="#222C3C"/>
</svg>
