<svg width="786" height="692" viewBox="0 0 786 692" fill="none" xmlns="http://www.w3.org/2000/svg">
<rect width="786" height="692" fill="#222C3C"/>
<path d="M389.646 454.147C433.984 454.148 474.089 461.831 503.081 474.224C517.579 480.42 529.263 487.78 537.312 495.914C545.357 504.045 549.735 512.909 549.735 522.146C549.735 531.384 545.358 540.249 537.312 548.38C529.263 556.514 517.579 563.874 503.081 570.07C474.089 582.463 433.984 590.146 389.646 590.146C345.308 590.146 305.202 582.463 276.209 570.07C261.712 563.874 250.028 556.514 241.979 548.38C233.933 540.249 229.556 531.384 229.556 522.146C229.556 512.909 233.933 504.045 241.979 495.914C250.028 487.78 261.712 480.42 276.209 474.224C305.202 461.831 345.308 454.147 389.646 454.147Z" stroke="white" stroke-width="1.5"/>
<path d="M390.07 475.366C423.752 475.366 454.212 480.63 476.223 489.113C487.231 493.356 496.089 498.389 502.181 503.94C508.273 509.491 511.542 515.502 511.542 521.723C511.541 527.943 508.273 533.953 502.181 539.504C496.089 545.055 487.231 550.088 476.223 554.331C454.212 562.815 423.752 568.078 390.07 568.078C356.388 568.078 325.928 562.815 303.917 554.331C292.908 550.088 284.052 545.055 277.959 539.504C271.868 533.953 268.599 527.943 268.599 521.723C268.599 515.502 271.868 509.491 277.959 503.94C284.052 498.389 292.909 493.356 303.917 489.113C325.928 480.63 356.388 475.366 390.07 475.366Z" stroke="white" stroke-width="1.5"/>
<mask id="mask0_4040_130" style="mask-type:alpha" maskUnits="userSpaceOnUse" x="267" y="474" width="246" height="95">
<path d="M390.07 475.366C423.752 475.366 454.212 480.63 476.223 489.113C487.231 493.356 496.089 498.389 502.181 503.94C508.273 509.491 511.542 515.502 511.542 521.723C511.541 527.943 508.273 533.953 502.181 539.504C496.089 545.055 487.231 550.088 476.223 554.331C454.212 562.815 423.752 568.078 390.07 568.078C356.388 568.078 325.928 562.815 303.917 554.331C292.908 550.088 284.052 545.055 277.959 539.504C271.868 533.953 268.599 527.943 268.599 521.723C268.599 515.502 271.868 509.491 277.959 503.94C284.052 498.389 292.909 493.356 303.917 489.113C325.928 480.63 356.388 475.366 390.07 475.366Z" fill="#D9D9D9" stroke="#222C3C" stroke-width="1.5"/>
</mask>
<g mask="url(#mask0_4040_130)">
<path d="M393.89 508.468C421.56 508.468 446.574 514.716 464.644 524.78C482.738 534.858 493.717 548.662 493.717 563.735C493.717 578.809 482.738 592.613 464.644 602.691C446.574 612.756 421.56 619.004 393.89 619.004C366.219 619.004 341.205 612.756 323.135 602.691C305.04 592.613 294.062 578.809 294.062 563.735C294.062 548.662 305.04 534.858 323.135 524.78C341.205 514.716 366.219 508.468 393.89 508.468Z" stroke="white" stroke-width="1.5"/>
<ellipse cx="392.192" cy="594.291" rx="94.6364" ry="52.6229" fill="white"/>
</g>
<path d="M275.912 506.021C289.967 507.002 321.358 518.222 334.476 555.248" stroke="white" stroke-width="1.5"/>
<path d="M505.076 506.021C491.021 507.002 459.63 518.222 446.512 555.248" stroke="white" stroke-width="1.5"/>
<path d="M392.616 549.731V475.465" stroke="white" stroke-width="1.5"/>
<path d="M326.837 482.68C337.022 484.118 366.729 508.142 369.275 554.824" stroke="white" stroke-width="1.5"/>
<path d="M455 482.68C444.815 484.118 415.108 508.142 412.562 554.824" stroke="white" stroke-width="1.5"/>
<path d="M461.856 382.26C449.595 347.984 427.719 340.808 418.314 341.505L368.151 347.078C369.823 359.061 365.597 382.26 363.275 392.362C351.849 392.64 353.405 402.928 355.611 408.037L456.628 412.914C464.757 402.696 480.874 376.687 480.316 354.393C479.62 326.527 500.52 320.257 492.508 311.897C484.496 303.537 465.34 323.74 468.475 348.82C470.826 367.63 465.107 379.473 461.856 382.26Z" fill="#222C3C" stroke="white" stroke-width="1.5"/>
<path fill-rule="evenodd" clip-rule="evenodd" d="M461.856 382.26C449.594 347.984 427.719 340.808 418.314 341.505L368.151 347.078C369.823 359.061 365.596 382.26 363.274 392.362C352.376 392.628 353.289 402 355.311 407.298C343.23 419.083 335.76 435.352 335.76 453.321C335.76 489.296 365.703 518.46 402.64 518.46C439.577 518.46 469.52 489.296 469.52 453.321C469.52 452.367 469.499 451.418 469.458 450.475C455.084 462.469 437.519 468.798 420.941 471.826C403.902 474.938 387.382 474.668 375.289 473.181C371.47 472.711 368.984 469.059 369.694 465.277C370.405 461.496 374.046 459.016 377.868 459.456C388.596 460.693 403.31 460.883 418.437 458.119C436.205 454.874 453.858 447.69 466.555 434.081C464.079 426.27 460.135 419.087 455.038 412.837L456.628 412.914C464.756 402.696 480.873 376.687 480.316 354.393C479.936 339.179 485.993 330.402 490.268 324.208C493.823 319.057 496.145 315.692 492.508 311.897C484.496 303.537 465.34 323.74 468.475 348.82C470.826 367.63 465.107 379.473 461.856 382.26Z" fill="#222C3C"/>
<path d="M418.314 341.505L418.258 340.757L418.245 340.758L418.231 340.76L418.314 341.505ZM461.856 382.26L461.149 382.513L461.516 383.539L462.344 382.83L461.856 382.26ZM368.151 347.078L368.068 346.333L367.301 346.418L367.408 347.182L368.151 347.078ZM363.274 392.362L363.292 393.112L363.875 393.097L364.005 392.53L363.274 392.362ZM355.311 407.298L355.834 407.835L356.187 407.491L356.011 407.031L355.311 407.298ZM469.458 450.475L470.207 450.442L470.14 448.929L468.977 449.899L469.458 450.475ZM420.941 471.826L421.076 472.564L421.076 472.564L420.941 471.826ZM375.289 473.181L375.38 472.436L375.38 472.436L375.289 473.181ZM377.868 459.456L377.782 460.201L377.782 460.201L377.868 459.456ZM418.437 458.119L418.572 458.857L418.572 458.857L418.437 458.119ZM466.555 434.081L467.103 434.592L467.402 434.272L467.27 433.854L466.555 434.081ZM455.038 412.837L455.074 412.088L453.393 412.007L454.457 413.311L455.038 412.837ZM456.628 412.914L456.592 413.663L456.975 413.681L457.215 413.38L456.628 412.914ZM480.316 354.393L481.066 354.375L480.316 354.393ZM490.268 324.208L490.885 324.634L490.885 324.634L490.268 324.208ZM492.508 311.897L493.049 311.378L493.049 311.378L492.508 311.897ZM468.475 348.82L467.73 348.913L467.73 348.913L468.475 348.82ZM418.314 341.505L418.369 342.253C427.371 341.586 448.977 348.486 461.149 382.513L461.856 382.26L462.562 382.007C450.211 347.482 428.067 340.031 418.258 340.757L418.314 341.505ZM368.151 347.078L368.234 347.824L418.397 342.251L418.314 341.505L418.231 340.76L368.068 346.333L368.151 347.078ZM363.274 392.362L364.005 392.53C365.171 387.459 366.812 379.111 367.954 370.524C369.092 361.959 369.745 353.075 368.894 346.975L368.151 347.078L367.408 347.182C368.229 353.064 367.604 361.771 366.467 370.327C365.332 378.861 363.7 387.163 362.543 392.194L363.274 392.362ZM355.311 407.298L356.011 407.031C355.025 404.445 354.353 400.962 355.168 398.152C355.569 396.77 356.325 395.562 357.58 394.675C358.843 393.784 360.673 393.175 363.292 393.112L363.274 392.362L363.256 391.612C360.426 391.681 358.283 392.343 356.715 393.45C355.14 394.561 354.208 396.077 353.727 397.734C352.779 401.001 353.575 404.853 354.61 407.565L355.311 407.298ZM335.76 453.321H336.51C336.51 435.565 343.89 419.486 355.834 407.835L355.311 407.298L354.787 406.761C342.57 418.679 335.01 435.139 335.01 453.321H335.76ZM402.64 518.46V517.71C366.098 517.71 336.51 488.863 336.51 453.321H335.76H335.01C335.01 489.729 365.308 519.21 402.64 519.21V518.46ZM469.52 453.321H468.77C468.77 488.863 439.181 517.71 402.64 517.71V518.46V519.21C439.972 519.21 470.27 489.729 470.27 453.321H469.52ZM469.458 450.475L468.708 450.508C468.749 451.441 468.77 452.378 468.77 453.321H469.52H470.27C470.27 452.356 470.249 451.396 470.207 450.442L469.458 450.475ZM469.458 450.475L468.977 449.899C454.733 461.785 437.302 468.075 420.806 471.088L420.941 471.826L421.076 472.564C437.736 469.52 455.435 463.153 469.938 451.051L469.458 450.475ZM420.941 471.826L420.806 471.088C403.853 474.185 387.411 473.916 375.38 472.436L375.289 473.181L375.197 473.925C387.354 475.42 403.951 475.692 421.076 472.564L420.941 471.826ZM375.289 473.181L375.38 472.436C372.022 472.023 369.795 468.803 370.431 465.416L369.694 465.277L368.957 465.139C368.173 469.315 370.919 473.399 375.197 473.925L375.289 473.181ZM369.694 465.277L370.431 465.416C371.063 462.051 374.32 459.802 377.782 460.201L377.868 459.456L377.954 458.711C373.772 458.229 369.746 460.941 368.957 465.139L369.694 465.277ZM377.868 459.456L377.782 460.201C388.571 461.445 403.36 461.636 418.572 458.857L418.437 458.119L418.302 457.382C403.259 460.129 388.621 459.94 377.954 458.711L377.868 459.456ZM418.437 458.119L418.572 458.857C436.434 455.594 454.259 448.36 467.103 434.592L466.555 434.081L466.006 433.569C453.457 447.021 435.976 454.153 418.302 457.382L418.437 458.119ZM455.038 412.837L454.457 413.311C459.496 419.49 463.393 426.589 465.84 434.307L466.555 434.081L467.27 433.854C464.765 425.951 460.775 418.684 455.619 412.363L455.038 412.837ZM456.628 412.914L456.664 412.164L455.074 412.088L455.038 412.837L455.002 413.586L456.592 413.663L456.628 412.914ZM480.316 354.393L479.566 354.412C479.841 365.39 476.005 377.341 471.05 387.862C466.101 398.373 460.071 407.38 456.041 412.447L456.628 412.914L457.215 413.38C461.313 408.229 467.406 399.123 472.407 388.501C477.404 377.89 481.349 365.69 481.066 354.375L480.316 354.393ZM490.268 324.208L489.651 323.782C485.355 330.006 479.18 338.95 479.566 354.412L480.316 354.393L481.066 354.375C480.691 339.408 486.631 330.797 490.885 324.634L490.268 324.208ZM492.508 311.897L491.966 312.415C492.809 313.295 493.267 314.107 493.466 314.883C493.664 315.656 493.621 316.454 493.365 317.334C492.836 319.151 491.455 321.167 489.651 323.782L490.268 324.208L490.885 324.634C492.635 322.098 494.193 319.856 494.805 317.754C495.119 316.674 495.197 315.598 494.919 314.511C494.641 313.428 494.025 312.396 493.049 311.378L492.508 311.897ZM468.475 348.82L469.219 348.727C467.677 336.393 471.621 325.265 476.909 318.271C479.558 314.767 482.502 312.355 485.202 311.312C487.87 310.281 490.224 310.598 491.966 312.415L492.508 311.897L493.049 311.378C490.785 309.015 487.74 308.723 484.661 309.912C481.614 311.09 478.463 313.728 475.713 317.366C470.204 324.653 466.137 336.167 467.73 348.913L468.475 348.82ZM461.856 382.26L462.344 382.83C464.135 381.294 466.431 377.467 467.99 371.746C469.559 365.988 470.406 358.226 469.219 348.727L468.475 348.82L467.73 348.913C468.894 358.224 468.058 365.789 466.542 371.352C465.017 376.952 462.827 380.44 461.367 381.691L461.856 382.26Z" fill="white"/>
<path d="M436.749 254.474C443.38 263.284 434.586 305.785 429.791 322.206L408.15 281.039C415.075 268.402 433.989 250.806 436.749 254.474Z" fill="#222C3C" stroke="white" stroke-width="1.6"/>
<path d="M354.081 257.134C364.921 258.387 384.517 288.965 392.999 303.813L349.902 303.62C345.585 289.834 349.569 256.612 354.081 257.134Z" fill="#222C3C" stroke="white" stroke-width="1.6"/>
<path d="M441.594 323.077C439.395 333.833 432.635 341.884 422.568 347.149C412.795 352.26 399.906 354.741 385.105 354.463L383.667 354.428C361.589 353.753 342.37 340.649 341.774 319.96L341.761 318.968C341.761 287.732 372.015 269.274 399.302 274.851L400.952 275.201C417.812 278.908 428.952 285.462 435.406 293.622C442.052 302.026 443.81 312.238 441.594 323.077Z" fill="#222C3C" stroke="white" stroke-width="1.6"/>
<path d="M374.024 312.944C373.64 319.951 368.792 324.917 363.587 324.53C358.382 324.144 354.116 318.502 354.5 311.496C354.884 304.489 359.733 299.522 364.937 299.908C370.142 300.294 374.409 305.937 374.024 312.944Z" fill="white" stroke="white" stroke-width="2"/>
<path d="M370.036 312.128C369.776 316.961 366.523 320.232 363.197 319.98C359.871 319.728 356.995 315.992 357.254 311.159C357.514 306.326 360.767 303.055 364.093 303.307C367.419 303.559 370.296 307.295 370.036 312.128Z" fill="#222C3C" stroke="white" stroke-width="2"/>
<path d="M416.61 312.838C416.632 320.599 411.73 326.484 406.129 326.506C400.528 326.528 395.59 320.682 395.568 312.92C395.546 305.158 400.449 299.274 406.05 299.252C411.651 299.23 416.587 305.076 416.61 312.838Z" fill="white" stroke="white" stroke-width="2"/>
<path d="M411.484 312.282C411.224 317.115 407.971 320.386 404.645 320.134C401.319 319.882 398.442 316.146 398.702 311.314C398.961 306.481 402.214 303.209 405.54 303.461C408.866 303.713 411.743 307.449 411.484 312.282Z" fill="#222C3C" stroke="white" stroke-width="2"/>
<path d="M382.785 374.598L380.695 393.756C378.489 397.007 374.216 404.206 374.773 406.993" stroke="white" stroke-width="1.5" stroke-linecap="round"/>
<path d="M389.055 413.96C393.7 411.289 403.685 402.744 406.472 389.925" stroke="white" stroke-width="1.5" stroke-linecap="round"/>
<path d="M407.168 410.127C406.82 406.76 408.353 399.329 417.27 396.542" stroke="white" stroke-width="1.5" stroke-linecap="round"/>
<path d="M309.679 194.697C137.863 300.104 210.484 448.749 210.484 448.749C206.367 394.139 193.332 363.566 253.308 341.931C285.842 330.195 271.499 309.811 261.542 304.897C286.885 263.483 320.703 285.679 349.424 275.59C382.587 263.942 361.94 229.508 361.94 229.508C372.668 205.314 435.877 208.638 477.646 259.301C511.061 299.831 537.359 287.474 546.331 276.23C583.289 248.641 481.494 89.2899 309.679 194.697Z" fill="white"/>
<path d="M532.683 225.175C539.495 235.028 541.105 246.22 536.28 250.173C531.454 254.127 526.389 245.765 519.578 235.913C512.766 226.06 506.786 218.448 511.612 214.495C516.437 210.541 525.871 215.323 532.683 225.175Z" fill="#222C3C"/>
<ellipse cx="481.671" cy="200.953" rx="6.63457" ry="6.15364" transform="rotate(-58.5358 481.671 200.953)" fill="#222C3C"/>
<ellipse cx="327.312" cy="245.089" rx="6.63457" ry="6.15364" transform="rotate(-58.5358 327.312 245.089)" fill="#222C3C"/>
<ellipse cx="212.126" cy="480.992" rx="6.63457" ry="6.15364" transform="rotate(-56.7735 212.126 480.992)" fill="white"/>
<ellipse cx="564.985" cy="454.27" rx="4.15785" ry="3.85645" transform="rotate(-56.7735 564.985 454.27)" fill="white"/>
<ellipse cx="324.989" cy="411.784" rx="4.15785" ry="3.85645" transform="rotate(-56.7735 324.989 411.784)" fill="white" fill-opacity="0.2"/>
<ellipse cx="524.102" cy="438.788" rx="3.32256" ry="3.08171" transform="rotate(-56.7735 524.102 438.788)" fill="white" fill-opacity="0.2"/>
<ellipse cx="488.833" cy="454.795" rx="1.58935" ry="1.47414" transform="rotate(-56.7735 488.833 454.795)" fill="white"/>
<ellipse cx="518.523" cy="404.717" rx="1.73672" ry="1.61083" transform="rotate(-56.7735 518.523 404.717)" fill="white" fill-opacity="0.1"/>
<ellipse cx="278.527" cy="362.232" rx="1.73672" ry="1.61083" transform="rotate(-56.7735 278.527 362.232)" fill="white" fill-opacity="0.2"/>
<ellipse cx="279.439" cy="405.232" rx="1.73672" ry="1.61083" transform="rotate(-56.7735 279.439 405.232)" fill="white"/>
<ellipse cx="302.439" cy="315.232" rx="1.73672" ry="1.61083" transform="rotate(-56.7735 302.439 315.232)" fill="white"/>
<ellipse cx="241.439" cy="462.232" rx="1.73672" ry="1.61083" transform="rotate(-56.7735 241.439 462.232)" fill="white" fill-opacity="0.2"/>
<ellipse cx="545.031" cy="412.982" rx="0.704676" ry="0.653595" transform="rotate(-56.7735 545.031 412.982)" fill="white"/>
<ellipse cx="251.073" cy="416.844" rx="0.704676" ry="0.653595" transform="rotate(-56.7735 251.073 416.844)" fill="white"/>
<ellipse cx="305.035" cy="370.496" rx="0.704676" ry="0.653595" transform="rotate(-56.7735 305.035 370.496)" fill="white"/>
<ellipse cx="563.503" cy="495.14" rx="1.80919" ry="1.67805" transform="rotate(-56.7735 563.503 495.14)" fill="white" fill-opacity="0.2"/>
<ellipse cx="519.717" cy="502.647" rx="2.70553" ry="2.50941" transform="rotate(-56.7735 519.717 502.647)" fill="white" fill-opacity="0.1"/>
<ellipse cx="279.722" cy="460.162" rx="2.70553" ry="2.50941" transform="rotate(-56.7735 279.722 460.162)" fill="white"/>
<path d="M616.033 486.155C621.358 489.842 631.7 505.631 630.471 539.3" stroke="white" stroke-width="1.5" stroke-linecap="round"/>
<path d="M620.948 482.469C628.218 487.896 644.356 507.843 650.746 544.215" stroke="white" stroke-width="1.5" stroke-linecap="round"/>
<path d="M608.143 454.48L608.504 454.67L608.858 454.469L620.012 448.171L617.892 460.803L617.824 461.205L618.124 461.481L627.559 470.142L614.891 472.029L614.489 472.089L614.319 472.459L608.997 484.11L603.288 472.644L603.107 472.28L602.702 472.233L589.976 470.772L599.118 461.799L599.408 461.514L599.327 461.114L596.784 448.56L608.143 454.48Z" fill="#222C3C" stroke="white" stroke-width="1.5"/>
<path d="M626.17 479.396C634.772 483.39 654.678 496.292 665.491 515.953" stroke="white" stroke-width="1.5" stroke-linecap="round"/>
<path d="M590.225 370.463C592.818 366.85 603.781 359.934 626.883 361.173" stroke="white" stroke-width="1.5" stroke-linecap="round"/>
<path d="M587.751 367.045C591.562 362.117 605.447 351.27 630.495 347.309" stroke="white" stroke-width="1.5" stroke-linecap="round"/>
<path d="M568.591 375.62L568.786 375.262L568.591 374.904L564.633 367.605L572.797 369.119L573.198 369.194L573.478 368.899L579.197 362.878L580.279 371.111L580.332 371.514L580.699 371.689L588.193 375.269L580.698 378.842L580.33 379.017L580.276 379.421L579.189 387.653L573.474 381.629L573.194 381.333L572.793 381.407L564.628 382.916L568.591 375.62Z" fill="white" stroke="white" stroke-width="1.5"/>
<path d="M585.704 363.423C588.547 357.564 597.639 344.048 611.264 336.854" stroke="white" stroke-width="1.5" stroke-linecap="round"/>
</svg>
