<svg width="525" height="507" viewBox="0 0 525 507" fill="none" xmlns="http://www.w3.org/2000/svg">
<path d="M247.505 370.251C291.843 370.252 331.949 377.935 360.941 390.328C375.439 396.524 387.123 403.884 395.172 412.018C403.217 420.149 407.594 429.013 407.594 438.25C407.594 447.488 403.217 456.353 395.172 464.484C387.123 472.618 375.438 479.978 360.941 486.174C331.949 498.567 291.843 506.25 247.505 506.25C203.167 506.25 163.062 498.567 134.069 486.174C119.572 479.978 107.887 472.618 99.8385 464.484C91.7927 456.353 87.4156 447.488 87.4156 438.25C87.4157 429.013 91.7928 420.149 99.8385 412.018C107.887 403.884 119.571 396.524 134.069 390.328C163.062 377.935 203.167 370.251 247.505 370.251Z" stroke="white" stroke-width="1.5"/>
<path d="M247.93 391.47C281.612 391.47 312.072 396.734 334.084 405.217C345.092 409.46 353.949 414.493 360.041 420.044C366.133 425.595 369.401 431.606 369.401 437.827C369.401 444.047 366.133 450.057 360.041 455.608C353.949 461.159 345.092 466.192 334.084 470.435C312.072 478.919 281.612 484.182 247.93 484.182C214.247 484.182 183.788 478.919 161.776 470.435C150.768 466.192 141.911 461.159 135.819 455.608C129.728 450.057 126.459 444.047 126.459 437.827C126.459 431.606 129.727 425.595 135.819 420.044C141.911 414.493 150.768 409.46 161.776 405.217C183.788 396.734 214.247 391.47 247.93 391.47Z" stroke="white" stroke-width="1.5"/>
<mask id="mask0_2006_1124" style="mask-type:alpha" maskUnits="userSpaceOnUse" x="125" y="390" width="246" height="95">
<path d="M247.93 391.47C281.612 391.47 312.072 396.734 334.084 405.217C345.092 409.46 353.949 414.493 360.041 420.044C366.133 425.595 369.401 431.606 369.401 437.827C369.401 444.047 366.133 450.057 360.041 455.608C353.949 461.159 345.092 466.192 334.084 470.435C312.072 478.919 281.612 484.182 247.93 484.182C214.247 484.182 183.788 478.919 161.776 470.435C150.768 466.192 141.911 461.159 135.819 455.608C129.728 450.057 126.459 444.047 126.459 437.827C126.459 431.606 129.727 425.595 135.819 420.044C141.911 414.493 150.768 409.46 161.776 405.217C183.788 396.734 214.247 391.47 247.93 391.47Z" fill="#D9D9D9" stroke="#222C3C" stroke-width="1.5"/>
</mask>
<g mask="url(#mask0_2006_1124)">
<path d="M251.75 424.572C279.42 424.572 304.434 430.821 322.503 440.885C340.598 450.963 351.577 464.766 351.577 479.84C351.577 494.914 340.598 508.718 322.503 518.796C304.434 528.86 279.42 535.108 251.75 535.108C224.079 535.108 199.064 528.86 180.995 518.796C162.9 508.718 151.921 494.914 151.921 479.84C151.922 464.766 162.9 450.963 180.995 440.885C199.064 430.821 224.079 424.572 251.75 424.572Z" stroke="white" stroke-width="1.5"/>
<ellipse cx="250.052" cy="510.395" rx="94.6364" ry="52.6229" fill="white"/>
</g>
<path d="M133.772 422.125C147.827 423.106 179.217 434.326 192.336 471.352" stroke="white" stroke-width="1.5"/>
<path d="M362.936 422.125C348.881 423.106 317.49 434.326 304.372 471.352" stroke="white" stroke-width="1.5"/>
<path d="M250.476 465.835V391.569" stroke="white" stroke-width="1.5"/>
<path d="M184.697 398.784C194.882 400.222 224.589 424.246 227.135 470.928" stroke="white" stroke-width="1.5"/>
<path d="M312.86 398.784C302.675 400.222 272.968 424.246 270.422 470.928" stroke="white" stroke-width="1.5"/>
<path d="M319.716 298.364C307.455 264.088 285.579 256.912 276.174 257.609L226.011 263.182C227.683 275.165 223.457 298.364 221.135 308.466C209.709 308.744 211.265 319.032 213.471 324.141L314.488 329.018C322.616 318.8 338.734 292.791 338.176 270.497C337.48 242.631 358.38 236.361 350.368 228.001C342.356 219.641 323.2 239.844 326.335 264.924C328.686 283.734 322.967 295.577 319.716 298.364Z" fill="#222C3C" stroke="white" stroke-width="1.5"/>
<path fill-rule="evenodd" clip-rule="evenodd" d="M319.716 298.364C307.454 264.088 285.579 256.912 276.174 257.609L226.011 263.182C227.683 275.165 223.456 298.364 221.134 308.466C210.236 308.732 211.149 318.104 213.171 323.402C201.09 335.187 193.62 351.456 193.62 369.425C193.62 405.4 223.563 434.564 260.5 434.564C297.437 434.564 327.38 405.4 327.38 369.425C327.38 368.471 327.359 367.522 327.318 366.579C312.944 378.573 295.379 384.902 278.801 387.93C261.762 391.042 245.242 390.772 233.149 389.285C229.33 388.815 226.844 385.163 227.554 381.381C228.265 377.6 231.906 375.12 235.728 375.56C246.456 376.797 261.17 376.987 276.297 374.223C294.065 370.978 311.718 363.794 324.415 350.185C321.939 342.374 317.995 335.191 312.898 328.941L314.488 329.018C322.616 318.8 338.733 292.791 338.176 270.497C337.796 255.283 343.853 246.506 348.128 240.312C351.683 235.161 354.005 231.796 350.368 228.001C342.356 219.641 323.2 239.844 326.335 264.924C328.686 283.734 322.967 295.577 319.716 298.364Z" fill="#222C3C"/>
<path d="M276.174 257.609L276.118 256.861L276.105 256.862L276.091 256.864L276.174 257.609ZM319.716 298.364L319.009 298.617L319.376 299.643L320.204 298.934L319.716 298.364ZM226.011 263.182L225.928 262.437L225.161 262.522L225.268 263.286L226.011 263.182ZM221.134 308.466L221.152 309.216L221.735 309.201L221.865 308.634L221.134 308.466ZM213.171 323.402L213.694 323.939L214.047 323.595L213.871 323.135L213.171 323.402ZM327.318 366.579L328.067 366.546L328 365.033L326.837 366.003L327.318 366.579ZM278.801 387.93L278.936 388.668L278.801 387.93ZM233.149 389.285L233.24 388.54L233.149 389.285ZM235.728 375.56L235.642 376.305H235.642L235.728 375.56ZM276.297 374.223L276.432 374.961H276.432L276.297 374.223ZM324.415 350.185L324.963 350.696L325.262 350.376L325.13 349.958L324.415 350.185ZM312.898 328.941L312.934 328.192L311.253 328.111L312.317 329.415L312.898 328.941ZM314.488 329.018L314.452 329.767L314.836 329.785L315.075 329.484L314.488 329.018ZM338.176 270.497L338.926 270.479L338.176 270.497ZM348.128 240.312L348.745 240.738V240.738L348.128 240.312ZM350.368 228.001L350.909 227.482V227.482L350.368 228.001ZM326.335 264.924L325.59 265.017V265.017L326.335 264.924ZM276.229 258.357C285.231 257.69 306.837 264.59 319.009 298.617L320.422 298.111C308.071 263.586 285.927 256.135 276.118 256.861L276.229 258.357ZM226.094 263.928L276.257 258.355L276.091 256.864L225.928 262.437L226.094 263.928ZM221.865 308.634C223.031 303.563 224.672 295.215 225.814 286.628C226.952 278.063 227.605 269.179 226.754 263.079L225.268 263.286C226.089 269.168 225.464 277.875 224.327 286.431C223.192 294.965 221.56 303.267 220.403 308.298L221.865 308.634ZM213.871 323.135C212.885 320.549 212.213 317.066 213.028 314.256C213.429 312.874 214.185 311.666 215.44 310.779C216.703 309.888 218.533 309.279 221.152 309.216L221.116 307.716C218.286 307.785 216.144 308.447 214.576 309.554C213.001 310.665 212.068 312.181 211.587 313.838C210.639 317.105 211.435 320.957 212.47 323.669L213.871 323.135ZM194.37 369.425C194.37 351.669 201.75 335.59 213.694 323.939L212.647 322.865C200.43 334.783 192.87 351.243 192.87 369.425H194.37ZM260.5 433.814C223.959 433.814 194.37 404.967 194.37 369.425H192.87C192.87 405.833 223.168 435.314 260.5 435.314V433.814ZM326.63 369.425C326.63 404.967 297.042 433.814 260.5 433.814V435.314C297.832 435.314 328.13 405.833 328.13 369.425H326.63ZM326.568 366.612C326.609 367.545 326.63 368.482 326.63 369.425H328.13C328.13 368.46 328.109 367.5 328.067 366.546L326.568 366.612ZM326.837 366.003C312.593 377.889 295.162 384.179 278.666 387.192L278.936 388.668C295.596 385.624 313.295 379.257 327.798 367.155L326.837 366.003ZM278.666 387.192C261.713 390.289 245.271 390.02 233.24 388.54L233.057 390.029C245.214 391.524 261.811 391.796 278.936 388.668L278.666 387.192ZM233.24 388.54C229.882 388.127 227.655 384.907 228.292 381.52L226.817 381.243C226.033 385.419 228.779 389.503 233.057 390.029L233.24 388.54ZM228.292 381.52C228.923 378.155 232.18 375.906 235.642 376.305L235.814 374.815C231.632 374.333 227.606 377.045 226.817 381.243L228.292 381.52ZM235.642 376.305C246.431 377.549 261.22 377.74 276.432 374.961L276.162 373.486C261.119 376.233 246.482 376.044 235.814 374.815L235.642 376.305ZM276.432 374.961C294.294 371.698 312.119 364.464 324.963 350.696L323.866 349.673C311.317 363.125 293.836 370.257 276.162 373.486L276.432 374.961ZM312.317 329.415C317.356 335.594 321.253 342.693 323.7 350.411L325.13 349.958C322.625 342.055 318.635 334.788 313.479 328.467L312.317 329.415ZM314.524 328.268L312.934 328.192L312.862 329.69L314.452 329.767L314.524 328.268ZM337.426 270.516C337.701 281.494 333.865 293.445 328.91 303.966C323.961 314.477 317.931 323.484 313.901 328.551L315.075 329.484C319.173 324.333 325.266 315.227 330.268 304.605C335.264 293.994 339.209 281.794 338.926 270.479L337.426 270.516ZM347.511 239.886C343.215 246.11 337.04 255.054 337.426 270.516L338.926 270.479C338.552 255.512 344.491 246.901 348.745 240.738L347.511 239.886ZM349.826 228.52C350.669 229.399 351.127 230.211 351.326 230.987C351.524 231.76 351.481 232.558 351.225 233.438C350.696 235.255 349.316 237.271 347.511 239.886L348.745 240.738C350.495 238.202 352.053 235.961 352.665 233.858C352.979 232.778 353.057 231.702 352.779 230.615C352.501 229.532 351.885 228.5 350.909 227.482L349.826 228.52ZM327.079 264.831C325.537 252.497 329.481 241.369 334.769 234.375C337.418 230.871 340.362 228.459 343.062 227.416C345.73 226.385 348.084 226.702 349.826 228.52L350.909 227.482C348.645 225.119 345.6 224.827 342.521 226.016C339.474 227.194 336.323 229.832 333.573 233.47C328.064 240.757 323.997 252.271 325.59 265.017L327.079 264.831ZM320.204 298.934C321.995 297.398 324.291 293.571 325.85 287.85C327.419 282.092 328.266 274.33 327.079 264.831L325.59 265.017C326.754 274.328 325.918 281.893 324.402 287.456C322.877 293.056 320.687 296.544 319.228 297.795L320.204 298.934Z" fill="white"/>
<path d="M294.609 170.578C301.24 179.387 292.446 221.888 287.651 238.309L266.01 197.143C272.935 184.506 291.849 166.91 294.609 170.578Z" fill="#222C3C" stroke="white" stroke-width="1.6"/>
<path d="M211.942 173.237C222.781 174.49 242.378 205.068 250.86 219.916L207.762 219.723C203.445 205.937 207.429 172.716 211.942 173.237Z" fill="#222C3C" stroke="white" stroke-width="1.6"/>
<path d="M299.454 239.18C297.255 249.936 290.495 257.987 280.428 263.252C270.655 268.363 257.766 270.844 242.965 270.567L241.527 270.531C219.449 269.856 200.23 256.752 199.634 236.063L199.621 235.071C199.621 203.835 229.875 185.377 257.162 190.954L258.812 191.304C275.672 195.011 286.812 201.565 293.266 209.725C299.912 218.129 301.67 228.341 299.454 239.18Z" fill="#222C3C" stroke="white" stroke-width="1.6"/>
<path d="M231.884 229.048C231.5 236.054 226.652 241.02 221.447 240.634C216.242 240.248 211.976 234.606 212.36 227.599C212.744 220.592 217.593 215.626 222.797 216.012C228.002 216.398 232.269 222.041 231.884 229.048Z" fill="white" stroke="white" stroke-width="2"/>
<path d="M227.896 228.232C227.637 233.065 224.384 236.336 221.058 236.084C217.732 235.832 214.855 232.096 215.114 227.263C215.374 222.43 218.627 219.159 221.953 219.411C225.279 219.663 228.156 223.399 227.896 228.232Z" fill="#222C3C" stroke="white" stroke-width="2"/>
<path d="M274.47 228.941C274.492 236.703 269.59 242.587 263.989 242.609C258.388 242.631 253.45 236.785 253.428 229.023C253.406 221.262 258.309 215.377 263.91 215.355C269.511 215.334 274.447 221.18 274.47 228.941Z" fill="white" stroke="white" stroke-width="2"/>
<path d="M269.343 228.386C269.084 233.218 265.831 236.49 262.505 236.238C259.179 235.986 256.302 232.25 256.562 227.417C256.821 222.584 260.074 219.313 263.4 219.565C266.726 219.817 269.603 223.553 269.343 228.386Z" fill="#222C3C" stroke="white" stroke-width="2"/>
<path d="M240.645 290.701L238.555 309.86C236.349 313.111 232.076 320.31 232.633 323.096" stroke="white" stroke-width="1.5" stroke-linecap="round"/>
<path d="M246.915 330.063C251.56 327.392 261.545 318.847 264.332 306.028" stroke="white" stroke-width="1.5" stroke-linecap="round"/>
<path d="M265.028 326.231C264.68 322.864 266.213 315.433 275.13 312.646" stroke="white" stroke-width="1.5" stroke-linecap="round"/>
<path d="M167.539 110.801C-4.27668 216.208 68.344 364.853 68.344 364.853C64.2268 310.243 51.1917 279.67 111.168 258.035C143.702 246.299 129.359 225.915 119.402 221.001C144.745 179.587 178.562 201.783 207.284 191.694C240.447 180.046 219.8 145.612 219.8 145.612C230.528 121.418 293.737 124.743 335.506 175.405C368.921 215.935 395.218 203.578 404.19 192.334C441.148 164.745 339.354 5.3939 167.539 110.801Z" fill="white"/>
<path d="M390.543 141.28C397.355 151.132 398.965 162.324 394.14 166.278C389.314 170.232 384.249 161.87 377.437 152.017C370.625 142.165 364.646 134.553 369.472 130.599C374.297 126.646 383.731 131.428 390.543 141.28Z" fill="#222C3C"/>
<ellipse cx="339.531" cy="117.057" rx="6.63457" ry="6.15364" transform="rotate(-58.5358 339.531 117.057)" fill="#222C3C"/>
<ellipse cx="185.172" cy="161.193" rx="6.63457" ry="6.15364" transform="rotate(-58.5358 185.172 161.193)" fill="#222C3C"/>
<ellipse cx="69.9859" cy="397.096" rx="6.63457" ry="6.15364" transform="rotate(-56.7735 69.9859 397.096)" fill="white"/>
<ellipse cx="422.845" cy="370.374" rx="4.15785" ry="3.85645" transform="rotate(-56.7735 422.845 370.374)" fill="white"/>
<ellipse cx="182.849" cy="327.888" rx="4.15785" ry="3.85645" transform="rotate(-56.7735 182.849 327.888)" fill="white" fill-opacity="0.2"/>
<ellipse cx="381.962" cy="354.892" rx="3.32256" ry="3.08171" transform="rotate(-56.7735 381.962 354.892)" fill="white" fill-opacity="0.2"/>
<ellipse cx="346.693" cy="370.899" rx="1.58935" ry="1.47414" transform="rotate(-56.7735 346.693 370.899)" fill="white"/>
<ellipse cx="376.383" cy="320.821" rx="1.73672" ry="1.61083" transform="rotate(-56.7735 376.383 320.821)" fill="white" fill-opacity="0.1"/>
<ellipse cx="136.387" cy="278.336" rx="1.73672" ry="1.61083" transform="rotate(-56.7735 136.387 278.336)" fill="white" fill-opacity="0.2"/>
<ellipse cx="137.299" cy="321.336" rx="1.73672" ry="1.61083" transform="rotate(-56.7735 137.299 321.336)" fill="white"/>
<ellipse cx="160.299" cy="231.336" rx="1.73672" ry="1.61083" transform="rotate(-56.7735 160.299 231.336)" fill="white"/>
<ellipse cx="99.2991" cy="378.336" rx="1.73672" ry="1.61083" transform="rotate(-56.7735 99.2991 378.336)" fill="white" fill-opacity="0.2"/>
<ellipse cx="402.891" cy="329.086" rx="0.704676" ry="0.653595" transform="rotate(-56.7735 402.891 329.086)" fill="white"/>
<ellipse cx="108.933" cy="332.947" rx="0.704676" ry="0.653595" transform="rotate(-56.7735 108.933 332.947)" fill="white"/>
<ellipse cx="162.895" cy="286.6" rx="0.704676" ry="0.653595" transform="rotate(-56.7735 162.895 286.6)" fill="white"/>
<ellipse cx="421.363" cy="411.244" rx="1.80919" ry="1.67805" transform="rotate(-56.7735 421.363 411.244)" fill="white" fill-opacity="0.2"/>
<ellipse cx="377.577" cy="418.751" rx="2.70553" ry="2.50941" transform="rotate(-56.7735 377.577 418.751)" fill="white" fill-opacity="0.1"/>
<ellipse cx="137.582" cy="376.266" rx="2.70553" ry="2.50941" transform="rotate(-56.7735 137.582 376.266)" fill="white"/>
<path d="M473.893 402.259C479.218 405.945 489.56 421.735 488.331 455.404" stroke="white" stroke-width="1.5" stroke-linecap="round"/>
<path d="M478.808 398.572C486.078 403.999 502.216 423.947 508.606 460.318" stroke="white" stroke-width="1.5" stroke-linecap="round"/>
<path d="M466.003 370.583L466.365 370.773L466.719 370.572L477.872 364.274L475.752 376.906L475.685 377.308L475.985 377.584L485.419 386.245L472.751 388.132L472.349 388.192L472.179 388.562L466.857 400.213L461.148 388.747L460.967 388.383L460.563 388.336L447.836 386.875L456.978 377.902L457.268 377.617L457.187 377.217L454.645 364.663L466.003 370.583Z" fill="#222C3C" stroke="white" stroke-width="1.5"/>
<path d="M484.03 395.5C492.632 399.494 512.538 412.396 523.351 432.057" stroke="white" stroke-width="1.5" stroke-linecap="round"/>
<path d="M448.085 286.566C450.678 282.954 461.64 276.038 484.743 277.276" stroke="white" stroke-width="1.5" stroke-linecap="round"/>
<path d="M445.611 283.148C449.422 278.22 463.307 267.374 488.355 263.413" stroke="white" stroke-width="1.5" stroke-linecap="round"/>
<path d="M426.451 291.724L426.646 291.366L426.451 291.008L422.493 283.71L430.657 285.224L431.057 285.298L431.338 285.003L437.057 278.983L438.139 287.215L438.192 287.619L438.559 287.794L446.053 291.374L438.557 294.947L438.19 295.122L438.136 295.525L437.048 303.757L431.334 297.733L431.054 297.438L430.653 297.512L422.488 299.021L426.451 291.724Z" fill="white" stroke="white" stroke-width="1.5"/>
<path d="M443.564 279.527C446.406 273.668 455.498 260.152 469.124 252.958" stroke="white" stroke-width="1.5" stroke-linecap="round"/>
</svg>
