<svg width="68" height="68" viewBox="0 0 68 68" fill="none" xmlns="http://www.w3.org/2000/svg">
<path fill-rule="evenodd" clip-rule="evenodd" d="M33.9999 0C52.7776 0 68 15.2223 68 33.9999C68 52.7776 52.7776 68 33.9999 68C15.2223 68 -3.8147e-06 52.7776 -3.8147e-06 33.9999C-3.8147e-06 15.2223 15.2223 0 33.9999 0Z" fill="#222C3B"/>
<mask id="mask0_2014_1650" style="mask-type:luminance" maskUnits="userSpaceOnUse" x="34" y="22" width="25" height="24">
<path d="M58.3882 34.5895C58.0882 40.8495 52.9082 45.8295 46.5882 45.8295C40.2682 45.8295 34.7682 40.5295 34.7682 34.0095C34.7682 27.4895 40.0482 22.1895 46.5882 22.1895C53.1282 22.1895 57.7682 26.8495 58.3482 32.8295H52.9882C52.4282 29.8095 49.7882 27.5095 46.5882 27.5095C43.3882 27.5095 40.0882 30.4295 40.0882 34.0095C40.0882 37.5895 43.0082 40.5095 46.5882 40.5095C50.1682 40.5095 51.7082 38.7895 52.6482 36.3695H43.6282V34.5895H58.3882Z" fill="white"/>
</mask>
<g mask="url(#mask0_2014_1650)">
<path d="M23.1679 20.1895H44.8079C52.3479 20.1895 58.4679 26.3095 58.4679 33.8495C58.4679 41.3895 52.3479 47.5095 44.8079 47.5095H23.1679C15.6279 47.4895 9.50793 41.3895 9.50793 33.8495C9.50793 26.3095 15.6279 20.1895 23.1679 20.1895Z" fill="url(#paint0_linear_2014_1650)"/>
</g>
<mask id="mask1_2014_1650" style="mask-type:luminance" maskUnits="userSpaceOnUse" x="9" y="22" width="25" height="24">
<path d="M13.4868 42.7293C18.1268 46.9293 25.3068 46.7893 29.7668 42.3293C34.3868 37.7093 34.3868 30.2293 29.7668 25.6093C25.1468 20.9893 17.6668 20.9893 13.0468 25.6093C8.70676 29.9493 8.44676 36.8093 12.2468 41.4493L16.0468 37.6493C14.3068 35.1093 14.5468 31.6293 16.8068 29.3693C19.3468 26.8293 23.4668 26.8293 26.0068 29.3693C28.5468 31.9093 28.5468 36.0293 26.0068 38.5693C24.0668 40.5093 21.1868 40.9693 18.8068 39.9293L25.1868 33.5493L23.9268 32.2893L13.4868 42.7293Z" fill="white"/>
</mask>
<g mask="url(#mask1_2014_1650)">
<mask id="mask2_2014_1650" style="mask-type:luminance" maskUnits="userSpaceOnUse" x="9" y="20" width="50" height="28">
<path d="M23.1671 20.1895H44.8071C52.3471 20.1895 58.4671 26.3095 58.4671 33.8495C58.4671 41.3895 52.3471 47.5095 44.8071 47.5095H23.1671C15.6271 47.4895 9.50715 41.3895 9.50715 33.8495C9.50715 26.3095 15.6271 20.1895 23.1671 20.1895Z" fill="white"/>
</mask>
<g mask="url(#mask2_2014_1650)">
<path d="M23.1671 20.1895H44.8071C52.3471 20.1895 58.4671 26.3095 58.4671 33.8495C58.4671 41.3895 52.3471 47.5095 44.8071 47.5095H23.1671C15.6271 47.4895 9.50715 41.3895 9.50715 33.8495C9.50715 26.3095 15.6271 20.1895 23.1671 20.1895Z" fill="url(#paint1_linear_2014_1650)"/>
</g>
</g>
<defs>
<linearGradient id="paint0_linear_2014_1650" x1="57.8279" y1="27.5495" x2="8.74793" y2="40.5095" gradientUnits="userSpaceOnUse">
<stop stop-color="#FFDB3B"/>
<stop offset="0.2" stop-color="#FF6270"/>
<stop offset="0.4" stop-color="#FF1CE6"/>
<stop offset="0.6" stop-color="#B14EFF"/>
<stop offset="0.8" stop-color="#3BADFF"/>
<stop offset="1" stop-color="#6BE5FF"/>
</linearGradient>
<linearGradient id="paint1_linear_2014_1650" x1="57.8271" y1="27.5495" x2="8.74715" y2="40.5095" gradientUnits="userSpaceOnUse">
<stop stop-color="#FFDB3B"/>
<stop offset="0.2" stop-color="#FF6270"/>
<stop offset="0.4" stop-color="#FF1CE6"/>
<stop offset="0.6" stop-color="#B14EFF"/>
<stop offset="0.8" stop-color="#3BADFF"/>
<stop offset="1" stop-color="#6BE5FF"/>
</linearGradient>
</defs>
</svg>
